<?xml version="1.0" encoding="utf-8"?><!-- Uploaded to: SVG Repo, www.svgrepo.com, Generator: SVG Repo Mixer Tools -->
<svg fill="#000000" width="800px" height="800px" viewBox="0 0 24 24" id="ping-pong-2" data-name="Line Color" xmlns="http://www.w3.org/2000/svg" class="icon line-color"><path id="primary" d="M15.91,5.3a5.68,5.68,0,0,1,2.37,1.42,6.53,6.53,0,0,1-.37,9.2,6.85,6.85,0,0,1-6.35,1.92,2.13,2.13,0,0,0-2,.54L7.25,20.7a1.05,1.05,0,0,1-1.47,0L4.3,19.22a1.05,1.05,0,0,1,0-1.47l2.32-2.31a2.13,2.13,0,0,0,.54-2A6.85,6.85,0,0,1,9.08,7.09,6.17,6.17,0,0,1,10,6.31" style="fill: none; stroke: rgb(0, 0, 0); stroke-linecap: round; stroke-linejoin: round; stroke-width: 2;"></path><line id="primary-2" data-name="primary" x1="7.98" y1="9.67" x2="15.33" y2="17.02" style="fill: none; stroke: rgb(0, 0, 0); stroke-linecap: round; stroke-linejoin: round; stroke-width: 2;"></line><circle id="secondary" cx="13" cy="6" r="3" style="fill: none; stroke: rgb(44, 169, 188); stroke-linecap: round; stroke-linejoin: round; stroke-width: 2;"></circle></svg>